:SAMPLES-PER-SECOND 30
:FRAME-RANGE 1-663
:FULLY-SPECIFIED
:DEGREES
373
root  34.6409 39.3299 23.7814 175.274 -31.9122 -177.147
RightUpLeg  12.419 -8.197 -0.469159
RightLeg  6.15523 -25.7721 2.61143
RightFoot  -13.7749 0.0994111 9.07317
RightToes  2.91037e-010 0 -3.6325e-017
Spine  2.53166 3.94752 11.3776
Spine1  2.2593 6.59953 -11.3072
HEad  12.5835 16.8003 -5.22248
LeftShoulder1  1.59429 -1.29149 -27.1284
LeftArm  7.85997 -27.9537 -37.9295
LeftForeArm  -21.6898 -41.0817 -10.9895
LeftHand  -0.121955 6.04378 -13.0124
RightShoulder  12.9304 27.7892 35.0387
RightArm  5.29779 23.0051 12.6498
RightForeArm  -42.1597 25.3373 7.17937
RightHand  0.744578 -1.91288 25.1914
LeftUpLeg  -14.351 6.79789 -0.342711
LeftLeg  -2.28549 18.5945 -7.43675
LeftFoot  0.408846 1.3116 -12.7302
LeftToes  -4.9116e-011 5.71383e-011 -3.31847e-011
374
root  34.3676 39.0948 22.6457 174.942 -34.0569 -176.844
RightUpLeg  14.7202 -8.08089 0.346055
RightLeg  5.9776 -27.7891 2.84689
RightFoot  -15.3303 0.262328 10.5009
RightToes  2.91037e-010 0 -3.6325e-017
Spine  2.12866 4.11521 10.8859
Spine1  2.41261 6.70375 -11.1739
HEad  12.6156 15.4041 -4.62109
LeftShoulder1  1.63509 -1.51427 -26.4452
LeftArm  8.28526 -29.614 -38.1867
LeftForeArm  -22.8605 -40.4157 -10.8084
LeftHand  -0.113641 6.00233 -12.5025
RightShoulder  13.0796 28.767 34.2261
RightArm  5.09851 24.1091 12.4431
RightForeArm  -43.0399 23.402 7.14852
RightHand  0.745106 -1.96305 25.5847
LeftUpLeg  -13.0296 4.53741 -1.38016
LeftLeg  -6.71696 21.5264 -7.25955
LeftFoot  0.530045 1.48977 -14.3004
LeftToes  -4.9116e-011 5.71383e-011 -3.31847e-011
375
root  34.0354 38.8598 21.4791 174.402 -36.0958 -176.553
RightUpLeg  16.8047 -8.25228 0.928709
RightLeg  6.88015 -29.1908 2.81223
RightFoot  -16.7116 0.451381 12.0104
RightToes  2.91037e-010 0 -3.6325e-017
Spine  1.81754 4.27654 9.88267
Spine1  2.73384 6.80535 -10.6762
HEad  12.5262 14.0129 -3.4292
LeftShoulder1  1.64473 -1.63679 -25.835
LeftArm  8.6999 -31.7393 -38.7004
LeftForeArm  -23.6468 -39.0038 -10.3576
LeftHand  -0.119257 6.08324 -11.9853
RightShoulder  13.2378 29.6539 33.5925
RightArm  2.82238 24.974 12.0529
RightForeArm  -41.854 21.3711 8.18864
RightHand  0.75993 -1.99723 26.3361
LeftUpLeg  -12.7215 4.24233 -2.29806
LeftLeg  -5.4445 17.8396 -6.60303
LeftFoot  6.21769 0.723187 -4.92653
LeftToes  -4.9116e-011 5.71383e-011 -3.31847e-011
376
root  33.6563 38.701 20.3637 174.627 -37.6402 -177.842
RightUpLeg  18.4315 -12.6981 -1.61241
RightLeg  10.0959 -24.779 1.28458
RightFoot  -17.8716 0.724254 14.7562
RightToes  2.91037e-010 0 -3.6325e-017
Spine  2.50368 4.51764 7.67659
Spine1  2.37847 7.06075 -10.6642
HEad  12.4817 12.5806 -2.24459
LeftShoulder1  1.54208 -1.37132 -25.454
LeftArm  9.12787 -33.873 -39.3303
LeftForeArm  -24.6836 -37.7447 -9.98799
LeftHand  -0.156444 6.32067 -13.1395
RightShoulder  13.441 30.1974 33.5318
RightArm  -1.35199 25.8503 11.6055
RightForeArm  -38.4345 18.961 9.7363
RightHand  0.858359 -1.52389 25.9043
LeftUpLeg  -13.4486 3.51427 -4.04605
LeftLeg  -1.03015 17.4141 -5.09273
LeftFoot  9.80808 -1.12789 5.71505
LeftToes  -4.9116e-011 5.71383e-011 -3.31847e-011
377
root  33.2618 38.5685 19.3474 175.86 -38.7977 -179.873
RightUpLeg  18.1277 -25.5846 -7.44917
RightLeg  17.5181 -10.022 -3.16147
RightFoot  -18.5125 1.09172 19.2727
RightToes  2.91037e-010 0 -3.6325e-017
Spine  3.28169 4.89227 5.60861
Spine1  1.73796 7.49914 -11.3547
HEad  12.4804 11.1008 -1.14853
LeftShoulder1  1.5613 -1.45241 -25.3196
LeftArm  9.45385 -35.2329 -39.3205
LeftForeArm  -25.0115 -37.1632 -9.81544
LeftHand  -0.15364 6.38434 -12.0784
RightShoulder  13.7701 30.5735 34.038
RightArm  -6.92356 26.836 11.075
RightForeArm  -34.1562 16.0019 11.5389
RightHand  0.934634 -1.26018 26.2858
LeftUpLeg  -15.1843 3.19189 -5.86288
LeftLeg  5.50692 16.6398 -2.93612
LeftFoot  8.82485 -1.70014 9.23542
LeftToes  -4.9116e-011 5.71383e-011 -3.31847e-011
378
root  32.896 38.4808 18.416 176.713 -39.3887 178.711
RightUpLeg  14.4486 -24.6417 -8.61867
RightLeg  27.8401 -8.44221 -5.0328
RightFoot  -16.2608 0.992662 25.3136
RightToes  2.91037e-010 0 -3.6325e-017
Spine  4.13883 5.39836 4.63665
Spine1  1.62106 8.14109 -12.6518
HEad  12.0547 9.73297 -0.770628
LeftShoulder1  1.59937 -1.60793 -25.0983
LeftArm  9.21065 -35.9063 -39.4475
LeftForeArm  -25.1088 -36.7676 -9.69422
LeftHand  -0.160405 6.46034 -11.9135
RightShoulder  14.1153 31.265 34.198
RightArm  -13.8111 26.8991 10.8863
RightForeArm  -29.085 13.0025 12.6619
RightHand  0.964166 -1.21177 26.7632
LeftUpLeg  -16.206 7.19495 -7.37839
LeftLeg  10.9552 12.0367 -1.8811
LeftFoot  5.99894 -1.40544 8.95687
LeftToes  -4.9116e-011 5.71383e-011 -3.31847e-011
379
root  32.5213 38.516 17.6542 177.388 -38.9603 178.17
RightUpLeg  8.20704 -22.3641 -9.00644
RightLeg  39.7288 -6.91083 -6.38844
RightFoot  -9.35633 -0.523533 26.0754
RightToes  2.91037e-010 0 -3.6325e-017
Spine  5.19235 5.91304 5.17482
Spine1  1.0489 8.88523 -14.4278
HEad  11.7165 9.12952 -1.03458
LeftShoulder1  1.55312 -1.48786 -24.9155
LeftArm  8.06942 -35.8156 -39.5621
LeftForeArm  -24.67 -36.8879 -9.71269
LeftHand  -0.140094 6.3173 -11.4301
RightShoulder  14.4549 32.5089 33.693
RightArm  -19.799 27.207 10.8484
RightForeArm  -24.047 9.69553 13.4391
RightHand  1.05904 -0.851413 26.9381
LeftUpLeg  -16.3225 8.94703 -7.49574
LeftLeg  13.2501 10.6696 -1.84573
LeftFoot  4.1837 -1.2806 9.18599
LeftToes  -4.9116e-011 5.71383e-011 -3.31847e-011
380
root  32.1772 38.5499 16.9494 177.893 -38.9834 177.887
RightUpLeg  1.93089 -20.9799 -9.34363
RightLeg  49.797 -5.95551 -7.84278
RightFoot  -0.911217 -1.86588 20.1797
RightToes  2.91037e-010 0 -3.6325e-017
Spine  5.9975 6.0628 5.17498
Spine1  0.729081 9.07879 -15.1645
HEad  11.2682 9.00686 -1.63595
LeftShoulder1  1.51575 -1.4086 -24.644
LeftArm  6.39343 -35.3091 -39.1977
LeftForeArm  -24.1232 -37.5427 -9.89723
LeftHand  -0.184495 6.74164 -11.3774
RightShoulder  14.6253 33.6028 32.9273
RightArm  -23.4621 28.1598 10.8288
RightForeArm  -20.6021 6.94915 13.7656
RightHand  1.11501 -0.69377 27.3465
LeftUpLeg  -16.441 10.1993 -7.65669
LeftLeg  15.3079 9.32012 -1.5198
LeftFoot  2.57045 -1.17558 9.48389
LeftToes  -4.9116e-011 5.71383e-011 -3.31847e-011
381
root  31.8732 38.6114 16.2661 177.918 -39.9342 177.962
RightUpLeg  -2.05415 -20.9779 -10.0564
RightLeg  56.1006 -5.59051 -9.29646
RightFoot  -0.981435 -1.88962 20.5635
RightToes  2.91037e-010 0 -3.6325e-017
Spine  6.81468 5.95918 4.67916
Spine1  0.51653 8.78765 -14.6654
HEad  10.9989 8.76977 -2.28349
LeftShoulder1  1.51454 -1.38026 -24.8051
LeftArm  5.64333 -34.9113 -38.6419
LeftForeArm  -24.1354 -38.2296 -10.1218
LeftHand  -0.209563 7.03441 -10.9994
RightShoulder  14.6472 34.2125 32.3235
RightArm  -25.1146 28.8718 10.629
RightForeArm  -19.1036 5.60708 13.7645
RightHand  1.10961 -0.753598 27.572
LeftUpLeg  -15.9357 11.0368 -7.57175
LeftLeg  16.5987 7.57537 -1.35154
LeftFoot  1.14147 -0.989086 8.96049
LeftToes  -4.9116e-011 5.71383e-011 -3.31847e-011
382
root  31.5879 38.7649 15.5703 177.381 -41.2706 178.788
RightUpLeg  -5.12509 -21.5011 -10.1334
RightLeg  59.1865 -6.34701 -11.8015
RightFoot  -1.16934 -1.80853 20.0392
RightToes  2.91037e-010 0 -3.6325e-017
Spine  7.05644 5.82291 4.79635
Spine1  0.83735 8.57302 -14.0623
HEad  10.9459 8.10978 -2.37686
LeftShoulder1  1.55586 -1.4958 -24.9211
LeftArm  5.65701 -35.0942 -38.6298
LeftForeArm  -24.2902 -38.1272 -10.0951
LeftHand  -0.191762 6.89824 -10.7336
RightShoulder  14.5569 34.2654 32.028
RightArm  -26.1766 29.5305 10.3172
RightForeArm  -18.3067 4.65921 13.7389
RightHand  1.07389 -0.903297 27.6169
LeftUpLeg  -14.9911 11.1574 -6.75168
LeftLeg  17.1828 6.14204 -1.30354
LeftFoot  0.210808 -0.911968 8.98284
LeftToes  -4.9116e-011 5.71383e-011 -3.31847e-011
383
root  31.3477 38.9362 14.8824 176.788 -42.8352 179.815
RightUpLeg  -7.74377 -22.0237 -9.92761
RightLeg  59.7311 -7.21147 -13.5761
RightFoot  -2.03807 -1.60671 19.4016
RightToes  2.91037e-010 0 -3.6325e-017
Spine  7.26131 5.63011 4.86936
Spine1  0.818574 8.29346 -13.5728
HEad  11.3712 7.18983 -1.84127
LeftShoulder1  1.60255 -1.69885 -24.5913
LeftArm  5.81623 -35.2956 -39.2838
LeftForeArm  -27.1762 -38.554 -10.3654
LeftHand  -0.356712 9.85373 -7.48922
RightShoulder  14.4614 34.0755 31.9769
RightArm  -26.6999 29.8151 10.2017
RightForeArm  -17.9916 4.07537 13.7058
RightHand  1.03794 -1.03407 27.5382
LeftUpLeg  -13.9733 10.9298 -5.58728
LeftLeg  17.2797 4.83436 -1.55745
LeftFoot  -0.494393 -0.827466 8.72868
LeftToes  -4.9116e-011 5.71383e-011 -3.31847e-011
384
root  31.1868 39.1399 14.2075 176.338 -44.3003 -179.205
RightUpLeg  -10.0725 -21.8252 -9.43676
RightLeg  57.9644 -7.8997 -13.7757
RightFoot  -3.03211 -1.39116 18.7098
RightToes  2.91037e-010 0 -3.6325e-017
Spine  7.52306 5.48258 4.81243
Spine1  0.533719 8.03523 -13.0067
HEad  11.8597 6.12348 -1.2078
LeftShoulder1  1.666 -1.86977 -24.8033
LeftArm  6.21814 -35.9772 -39.4148
LeftForeArm  -39.0917 -39.668 -11.2066
LeftHand  2.71724 23.0003 17.7745
RightShoulder  14.4572 34.208 31.8246
RightArm  -27.3059 29.8307 9.99794
RightForeArm  -17.5814 3.28551 13.6266
RightHand  1.00363 -1.15254 27.4177
LeftUpLeg  -12.8191 10.0492 -4.15401
LeftLeg  16.5844 4.27284 -2.07641
LeftFoot  -0.828848 -0.736127 8.04186
LeftToes  -4.9116e-011 5.71383e-011 -3.31847e-011
